<svg width="293" height="231" viewBox="0 0 293 231" fill="none" xmlns="http://www.w3.org/2000/svg">
<path d="M182.941 204.431C183.206 203.945 183.421 203.434 183.654 202.935L268.411 18.6117C269.105 17.1086 269.805 15.6118 270.487 14.1024C270.727 13.5845 270.967 13.1298 271.661 13.1362C273.22 13.1362 274.785 13.1362 276.565 13.1362C276.174 14.0835 275.934 14.7845 275.606 15.4602C245.386 81.3852 215.169 147.308 184.954 213.229C183.749 215.856 182.505 218.477 181.344 221.123C180.322 223.46 180.473 225.733 182.165 227.716C182.9 228.642 183.886 229.336 185.005 229.717C186.124 230.098 187.329 230.149 188.476 229.864C191.001 229.352 192.263 227.603 193.247 225.443C223.404 159.775 253.549 94.1193 283.684 28.4764C286.562 22.2115 289.365 15.9276 292.331 9.68791C293.959 6.22704 292.64 1.35783 288.096 0.416822V0H265.337C265.359 0.0641707 265.367 0.132346 265.361 0.199902C265.354 0.267458 265.333 0.332814 265.299 0.391555C262.825 0.934685 261.512 2.68407 260.496 4.81238C257.13 12.1467 253.764 19.479 250.398 26.8091C226.465 79.0758 202.506 131.33 178.523 183.571C178.182 184.323 177.822 185.062 177.412 185.933C176.465 185.302 176.453 184.253 175.941 183.515C174.187 180.988 174.616 178.658 175.885 175.898C200.575 122.162 225.19 68.3943 249.729 14.595C250.499 12.9025 251.294 11.2163 252.058 9.54266C253.863 5.52603 251.938 1.50939 247.677 0.353664C247.657 0.233134 247.609 0.118776 247.539 0.0189456H225.228C225.262 0.149007 225.244 0.287417 225.177 0.404189C222.716 0.90311 221.258 2.5325 220.261 4.71134C216.415 13.1109 212.563 21.5062 208.704 29.8974L157.992 140.418C157.758 140.917 157.518 141.409 157.203 142.054C156.18 140.967 155.94 139.578 155.246 138.473C153.946 136.414 154.154 134.576 155.183 132.347C173.756 92.1004 192.269 51.8288 210.724 11.532C211.513 9.81422 212.106 8.10274 211.671 6.15126C211.427 4.8911 210.795 3.73899 209.863 2.85663C208.931 1.97428 207.747 1.40598 206.476 1.23151C205.722 1.14191 204.963 1.10604 204.204 1.12415C198.41 1.12415 192.616 1.23152 186.829 1.07995C183.08 0.9789 180.763 2.58302 179.255 5.91758C169.089 28.1648 158.884 50.4016 148.638 72.6278C145.015 80.5221 141.392 88.4164 137.77 96.3107C137.517 96.8728 137.214 97.4096 136.798 98.2369C135.788 96.0265 134.904 94.0435 133.964 92.0541C133.617 91.2899 134.153 90.7279 134.425 90.1595C137.416 83.5661 140.423 76.9812 143.444 70.4047C152.566 50.4731 161.686 30.5394 170.804 10.6036C172.066 7.86274 171.694 5.14078 169.813 3.1072C169.295 2.50113 168.654 2.01286 167.932 1.67518C167.211 1.33751 166.425 1.15825 165.629 1.14942C158.8 1.14942 151.97 1.09258 145.141 1.14942C142.207 1.14942 140.307 2.88617 139.12 5.46919L132.304 20.3168C127.394 31.0278 122.477 41.7283 117.554 52.4183C117.308 52.9614 117.201 53.6182 116.513 54.0161L111.407 42.9451C105.859 30.8573 100.267 18.7822 94.8013 6.65649C93.539 3.80822 92.0495 1.3073 89.0642 0.0189456H86.1672C85.6434 0.701015 84.7661 0.814693 84.1097 1.28204C81.9701 2.82301 80.8971 4.83764 81.219 7.50277C81.4098 8.44903 81.7439 9.36056 82.2099 10.2058C91.046 29.5142 99.882 48.8164 108.718 68.1122C109.013 68.6434 109.174 69.2389 109.186 69.8466C109.198 70.4544 109.061 71.0558 108.787 71.5983C98.0538 94.8771 87.3538 118.166 76.6874 141.466C76.5256 141.989 76.2372 142.464 75.848 142.849C75.3249 142.161 74.9157 141.394 74.6362 140.576C54.0734 95.7865 33.5128 50.9931 12.9543 6.19546C12.6352 5.43354 12.2553 4.69857 11.8182 3.99769C9.92478 1.16836 6.49135 0.208407 3.67013 1.72412C0.388167 3.46718 -0.836246 6.77648 0.583832 10.1237C0.829979 10.6984 1.10137 11.2541 1.35383 11.8225L69.1894 159.983C69.4573 160.63 69.7586 161.262 70.0919 161.878C72.6607 166.299 78.4231 166.412 81.1685 162.137C81.6573 161.306 82.0895 160.443 82.4624 159.554L115.503 87.7849C115.757 87.0402 116.133 86.3425 116.614 85.7197C117.579 87.1028 118.009 88.7196 118.829 90.1405C119.498 91.2899 119.34 92.2815 118.797 93.4372C115.932 99.5569 113.117 105.708 110.327 111.847C100.229 133.837 90.1308 155.828 80.0325 177.818C79.5949 178.681 79.3642 179.635 79.3587 180.603C79.3532 181.571 79.5731 182.526 80.0009 183.395C80.5374 184.519 81.0486 185.649 81.5598 186.78C84.2548 192.748 86.9625 198.71 89.6259 204.69C90.5221 206.699 91.8728 208.145 94.0439 208.701C97.5342 209.591 100.425 208.214 102.003 204.829C105.285 197.762 108.522 190.683 111.779 183.603C119.774 166.189 127.781 148.78 135.801 131.374C136.059 130.812 136.148 130.111 136.899 129.745C137.574 131.216 138.117 132.644 138.855 133.957C139.594 135.271 139.449 136.313 138.855 137.62C126.169 165.227 113.5 192.851 100.848 220.492C100.532 221.18 100.185 221.862 99.9388 222.576C99.6288 223.405 99.5002 224.291 99.5616 225.174C99.623 226.057 99.873 226.917 100.295 227.695C100.716 228.473 101.3 229.152 102.006 229.685C102.713 230.218 103.525 230.593 104.388 230.786C107.449 231.575 110.309 230.154 111.773 226.996C115.139 219.734 118.476 212.467 121.783 205.196C129.727 187.908 137.675 170.623 145.627 153.339C145.918 152.708 146.006 151.893 146.852 151.52C147.351 152.588 147.818 153.586 148.278 154.583C149.231 156.649 150.121 158.752 151.156 160.773C151.663 161.843 152.46 162.749 153.456 163.388C154.453 164.027 155.609 164.372 156.792 164.385C159.386 164.48 161.21 163.122 162.536 160.968C162.907 160.307 163.242 159.626 163.539 158.928L225.606 23.9987C227.075 20.8031 228.547 17.6096 230.024 14.4182C230.315 13.7866 230.51 13.0983 231.419 13.1551C232.921 13.2246 234.436 13.0225 235.97 13.2877C236.033 14.3803 235.402 15.1824 235.017 16.0223C215.384 58.8916 195.738 101.753 176.08 144.605C171.136 155.383 166.19 166.16 161.242 176.934C160.833 177.696 160.599 178.54 160.557 179.404C160.516 180.269 160.668 181.131 161.002 181.929C164.368 189.42 167.747 196.895 171.138 204.356C172.293 206.882 174.401 207.987 177.128 208.006C178.34 208.044 179.537 207.726 180.57 207.091C181.603 206.456 182.428 205.531 182.941 204.431ZM124.37 68.409C127 62.6493 129.647 56.8917 132.31 51.1363C137.732 39.3706 143.179 27.6175 148.531 15.8202C149.162 14.3929 149.945 13.8245 151.466 14.0014C152.689 14.0663 153.915 14.0663 155.139 14.0014L126.649 76.1455C125.614 73.9035 124.8 72.1036 123.96 70.3226C123.613 69.5774 124.124 69.009 124.396 68.409H124.37ZM128.959 115.447C125.172 123.72 121.385 131.985 117.598 140.241C110.862 154.952 104.121 169.675 97.3764 184.411C97.0103 185.213 96.6316 186.003 96.1456 187.045C96.0085 186.9 95.882 186.746 95.767 186.584C94.8897 184.639 93.4948 182.75 93.2929 180.736C93.1035 178.841 94.6624 177.066 95.4892 175.26C105.478 153.371 115.484 131.498 125.507 109.643C125.764 108.839 126.195 108.102 126.769 107.483C127.716 109.554 128.662 111.531 129.521 113.52C129.824 114.253 129.293 114.84 128.984 115.447H128.959ZM146.833 120.145C145.823 117.96 145.034 116.204 144.195 114.461C143.753 113.546 144.277 112.851 144.611 112.125C147.855 105.039 151.112 97.9612 154.381 90.8921C165.843 65.9671 177.303 41.0399 188.76 16.1107C188.962 15.675 189.189 15.2455 189.391 14.7971C189.481 14.5418 189.655 14.3246 189.884 14.1812C190.113 14.0378 190.385 13.9766 190.653 14.0077C192.162 14.0077 193.664 14.0077 195.482 14.0077L146.833 120.145Z" fill="white"/>
</svg>
